<mxfile host="app.diagrams.net" agent="Mozilla/5.0 (Macintosh; Intel Mac OS X 10_15_7) AppleWebKit/605.1.15 (KHTML, like Gecko) Version/18.3 Safari/605.1.15" version="26.2.13">
  <diagram name="Advanced User Use Case" id="advanced-user-case">
    <mxGraphModel dx="2551" dy="2354" grid="1" gridSize="10" guides="1" tooltips="1" connect="1" arrows="1" fold="1" page="1" pageScale="1" pageWidth="827" pageHeight="1169" math="0" shadow="0">
      <root>
        <mxCell id="0" />
        <mxCell id="1" parent="0" />
        <mxCell id="LVZY9OK_TpER_lkOl7NO-1012" value="" style="whiteSpace=wrap;html=1;aspect=fixed;glass=0;fillColor=none;" vertex="1" parent="1">
          <mxGeometry x="-520" y="-520" width="1230" height="1230" as="geometry" />
        </mxCell>
        <mxCell id="LVZY9OK_TpER_lkOl7NO-1013" value="&lt;b&gt;ASL Translation System&amp;nbsp;&lt;/b&gt;" style="text;html=1;align=center;verticalAlign=middle;whiteSpace=wrap;rounded=0;" vertex="1" parent="1">
          <mxGeometry x="480" y="-530" width="260" height="40" as="geometry" />
        </mxCell>
        <mxCell id="LVZY9OK_TpER_lkOl7NO-1014" value="&lt;b&gt;&lt;font style=&quot;font-size: 16px;&quot;&gt;System Boundary&lt;/font&gt;&lt;/b&gt;" style="text;html=1;align=center;verticalAlign=middle;whiteSpace=wrap;rounded=0;" vertex="1" parent="1">
          <mxGeometry x="-530" y="-550" width="220" height="30" as="geometry" />
        </mxCell>
        <mxCell id="LVZY9OK_TpER_lkOl7NO-1015" value="&lt;b&gt;&lt;font style=&quot;font-size: 16px;&quot;&gt;User UML&lt;/font&gt;&lt;/b&gt;" style="text;html=1;align=center;verticalAlign=middle;whiteSpace=wrap;rounded=0;" vertex="1" parent="1">
          <mxGeometry x="-20" y="-614" width="150" height="30" as="geometry" />
        </mxCell>
        <mxCell id="LVZY9OK_TpER_lkOl7NO-1038" style="edgeStyle=orthogonalEdgeStyle;rounded=0;orthogonalLoop=1;jettySize=auto;html=1;entryX=0.5;entryY=1;entryDx=0;entryDy=0;" edge="1" parent="1" source="LVZY9OK_TpER_lkOl7NO-1016" target="LVZY9OK_TpER_lkOl7NO-1034">
          <mxGeometry relative="1" as="geometry" />
        </mxCell>
        <mxCell id="LVZY9OK_TpER_lkOl7NO-1039" style="edgeStyle=orthogonalEdgeStyle;rounded=0;orthogonalLoop=1;jettySize=auto;html=1;entryX=0.5;entryY=0;entryDx=0;entryDy=0;" edge="1" parent="1" source="LVZY9OK_TpER_lkOl7NO-1016" target="LVZY9OK_TpER_lkOl7NO-1035">
          <mxGeometry relative="1" as="geometry" />
        </mxCell>
        <mxCell id="LVZY9OK_TpER_lkOl7NO-1093" style="edgeStyle=orthogonalEdgeStyle;rounded=0;orthogonalLoop=1;jettySize=auto;html=1;" edge="1" parent="1" source="LVZY9OK_TpER_lkOl7NO-1016" target="LVZY9OK_TpER_lkOl7NO-1092">
          <mxGeometry relative="1" as="geometry" />
        </mxCell>
        <mxCell id="LVZY9OK_TpER_lkOl7NO-1016" value="Actor" style="shape=umlActor;verticalLabelPosition=bottom;verticalAlign=top;html=1;outlineConnect=0;" vertex="1" parent="1">
          <mxGeometry x="-670" y="-180" width="30" height="120" as="geometry" />
        </mxCell>
        <mxCell id="LVZY9OK_TpER_lkOl7NO-1034" value="&lt;span style=&quot;text-align: start; font-size: medium;&quot;&gt;Register Account&lt;/span&gt;" style="ellipse;whiteSpace=wrap;html=1;" vertex="1" parent="1">
          <mxGeometry x="-460" y="-400" width="140" height="70" as="geometry" />
        </mxCell>
        <mxCell id="LVZY9OK_TpER_lkOl7NO-1035" value="&lt;span style=&quot;text-align: start; font-size: medium;&quot;&gt;Login&lt;/span&gt;" style="ellipse;whiteSpace=wrap;html=1;" vertex="1" parent="1">
          <mxGeometry x="-460" y="300" width="140" height="70" as="geometry" />
        </mxCell>
        <mxCell id="LVZY9OK_TpER_lkOl7NO-1036" value="Extends" style="endArrow=block;endSize=16;endFill=0;html=1;rounded=0;entryX=0;entryY=0.5;entryDx=0;entryDy=0;exitX=1;exitY=0.5;exitDx=0;exitDy=0;" edge="1" parent="1" source="LVZY9OK_TpER_lkOl7NO-1034" target="LVZY9OK_TpER_lkOl7NO-1037">
          <mxGeometry width="160" relative="1" as="geometry">
            <mxPoint x="-320" y="-365.91" as="sourcePoint" />
            <mxPoint x="-160" y="-365.91" as="targetPoint" />
          </mxGeometry>
        </mxCell>
        <mxCell id="LVZY9OK_TpER_lkOl7NO-1037" value="&lt;span style=&quot;text-align: start; font-size: medium;&quot;&gt;Email Verification&lt;/span&gt;" style="ellipse;whiteSpace=wrap;html=1;" vertex="1" parent="1">
          <mxGeometry x="-160" y="-400" width="140" height="70" as="geometry" />
        </mxCell>
        <mxCell id="LVZY9OK_TpER_lkOl7NO-1040" value="Extends" style="endArrow=block;endSize=16;endFill=0;html=1;rounded=0;exitX=0;exitY=0.5;exitDx=0;exitDy=0;entryX=0.947;entryY=0.345;entryDx=0;entryDy=0;entryPerimeter=0;" edge="1" parent="1" source="LVZY9OK_TpER_lkOl7NO-1041" target="LVZY9OK_TpER_lkOl7NO-1037">
          <mxGeometry width="160" relative="1" as="geometry">
            <mxPoint x="229.83000000000038" y="-420" as="sourcePoint" />
            <mxPoint x="-20" y="-380.49" as="targetPoint" />
            <Array as="points" />
          </mxGeometry>
        </mxCell>
        <mxCell id="LVZY9OK_TpER_lkOl7NO-1041" value="Verification Email" style="ellipse;whiteSpace=wrap;html=1;" vertex="1" parent="1">
          <mxGeometry x="220" y="-460" width="140" height="70" as="geometry" />
        </mxCell>
        <mxCell id="LVZY9OK_TpER_lkOl7NO-1042" value="Extends" style="endArrow=block;endSize=16;endFill=0;html=1;rounded=0;exitX=0.5;exitY=0;exitDx=0;exitDy=0;entryX=1;entryY=1;entryDx=0;entryDy=0;" edge="1" parent="1" source="LVZY9OK_TpER_lkOl7NO-1043" target="LVZY9OK_TpER_lkOl7NO-1037">
          <mxGeometry width="160" relative="1" as="geometry">
            <mxPoint y="-140" as="sourcePoint" />
            <mxPoint x="-30" y="-350" as="targetPoint" />
            <Array as="points" />
          </mxGeometry>
        </mxCell>
        <mxCell id="LVZY9OK_TpER_lkOl7NO-1043" value="Show Registration Error" style="ellipse;whiteSpace=wrap;html=1;" vertex="1" parent="1">
          <mxGeometry x="-60" y="-130" width="140" height="70" as="geometry" />
        </mxCell>
        <mxCell id="LVZY9OK_TpER_lkOl7NO-1044" value="Extends" style="endArrow=block;endSize=16;endFill=0;html=1;rounded=0;entryX=1;entryY=0.5;entryDx=0;entryDy=0;exitX=0;exitY=0.5;exitDx=0;exitDy=0;" edge="1" parent="1" source="LVZY9OK_TpER_lkOl7NO-1045" target="LVZY9OK_TpER_lkOl7NO-1041">
          <mxGeometry width="160" relative="1" as="geometry">
            <mxPoint x="490" y="-450" as="sourcePoint" />
            <mxPoint x="360" y="-430.49" as="targetPoint" />
            <Array as="points" />
          </mxGeometry>
        </mxCell>
        <mxCell id="LVZY9OK_TpER_lkOl7NO-1045" value="Email Send Confirmation" style="ellipse;whiteSpace=wrap;html=1;" vertex="1" parent="1">
          <mxGeometry x="490" y="-480" width="140" height="70" as="geometry" />
        </mxCell>
        <mxCell id="LVZY9OK_TpER_lkOl7NO-1051" style="edgeStyle=orthogonalEdgeStyle;rounded=0;orthogonalLoop=1;jettySize=auto;html=1;entryX=0;entryY=0.5;entryDx=0;entryDy=0;" edge="1" parent="1" source="LVZY9OK_TpER_lkOl7NO-1046" target="LVZY9OK_TpER_lkOl7NO-1050">
          <mxGeometry relative="1" as="geometry" />
        </mxCell>
        <mxCell id="LVZY9OK_TpER_lkOl7NO-1046" value="Actor" style="shape=umlActor;verticalLabelPosition=bottom;verticalAlign=top;html=1;" vertex="1" parent="1">
          <mxGeometry x="-669" y="440" width="30" height="60" as="geometry" />
        </mxCell>
        <mxCell id="LVZY9OK_TpER_lkOl7NO-1049" value="Email Platform" style="text;html=1;align=center;verticalAlign=middle;whiteSpace=wrap;rounded=0;" vertex="1" parent="1">
          <mxGeometry x="-684" y="400" width="60" height="30" as="geometry" />
        </mxCell>
        <mxCell id="LVZY9OK_TpER_lkOl7NO-1050" value="Verification Link" style="ellipse;whiteSpace=wrap;html=1;" vertex="1" parent="1">
          <mxGeometry x="-450" y="560" width="140" height="70" as="geometry" />
        </mxCell>
        <mxCell id="LVZY9OK_TpER_lkOl7NO-1052" value="Extends" style="endArrow=block;endSize=16;endFill=0;html=1;rounded=0;exitX=1;exitY=0;exitDx=0;exitDy=0;entryX=0;entryY=0.5;entryDx=0;entryDy=0;" edge="1" parent="1" source="LVZY9OK_TpER_lkOl7NO-1050" target="LVZY9OK_TpER_lkOl7NO-1053">
          <mxGeometry width="160" relative="1" as="geometry">
            <mxPoint x="-320" y="504.09" as="sourcePoint" />
            <mxPoint x="-160" y="504.09" as="targetPoint" />
            <Array as="points">
              <mxPoint x="-240" y="504.09" />
            </Array>
          </mxGeometry>
        </mxCell>
        <mxCell id="LVZY9OK_TpER_lkOl7NO-1053" value="Verify User" style="ellipse;whiteSpace=wrap;html=1;" vertex="1" parent="1">
          <mxGeometry x="-160" y="470" width="140" height="70" as="geometry" />
        </mxCell>
        <mxCell id="LVZY9OK_TpER_lkOl7NO-1054" value="Extends" style="endArrow=block;endSize=16;endFill=0;html=1;rounded=0;exitX=0.701;exitY=-0.031;exitDx=0;exitDy=0;exitPerimeter=0;entryX=1;entryY=0.5;entryDx=0;entryDy=0;" edge="1" parent="1" source="LVZY9OK_TpER_lkOl7NO-1053" target="LVZY9OK_TpER_lkOl7NO-1035">
          <mxGeometry width="160" relative="1" as="geometry">
            <mxPoint x="-270" y="360" as="sourcePoint" />
            <mxPoint x="-120" y="360" as="targetPoint" />
            <Array as="points">
              <mxPoint x="-70" y="420" />
            </Array>
          </mxGeometry>
        </mxCell>
        <mxCell id="LVZY9OK_TpER_lkOl7NO-1055" value="" style="endArrow=block;dashed=1;endFill=0;endSize=12;html=1;rounded=0;exitX=1;exitY=0;exitDx=0;exitDy=0;" edge="1" parent="1" source="LVZY9OK_TpER_lkOl7NO-1035">
          <mxGeometry width="160" relative="1" as="geometry">
            <mxPoint x="-320" y="310" as="sourcePoint" />
            <mxPoint x="-160" y="310" as="targetPoint" />
          </mxGeometry>
        </mxCell>
        <mxCell id="LVZY9OK_TpER_lkOl7NO-1056" value="Email Verification&lt;div&gt;Check&lt;/div&gt;" style="ellipse;whiteSpace=wrap;html=1;" vertex="1" parent="1">
          <mxGeometry x="-160" y="270" width="140" height="70" as="geometry" />
        </mxCell>
        <mxCell id="LVZY9OK_TpER_lkOl7NO-1057" value="return" style="html=1;verticalAlign=bottom;endArrow=open;dashed=1;endSize=8;curved=0;rounded=0;exitX=0.727;exitY=0.073;exitDx=0;exitDy=0;exitPerimeter=0;" edge="1" parent="1" source="LVZY9OK_TpER_lkOl7NO-1056" target="LVZY9OK_TpER_lkOl7NO-1037">
          <mxGeometry relative="1" as="geometry">
            <mxPoint x="100" y="150" as="sourcePoint" />
            <mxPoint x="90" y="150" as="targetPoint" />
            <Array as="points">
              <mxPoint x="-120" y="120" />
            </Array>
          </mxGeometry>
        </mxCell>
        <mxCell id="LVZY9OK_TpER_lkOl7NO-1059" value="Extends" style="endArrow=block;endSize=16;endFill=0;html=1;rounded=0;" edge="1" parent="1">
          <mxGeometry width="160" relative="1" as="geometry">
            <mxPoint x="-20" y="304.09000000000003" as="sourcePoint" />
            <mxPoint x="140" y="304.09000000000003" as="targetPoint" />
          </mxGeometry>
        </mxCell>
        <mxCell id="LVZY9OK_TpER_lkOl7NO-1060" value="&lt;span style=&quot;text-align: start; font-size: medium;&quot;&gt;Profile&lt;/span&gt;" style="ellipse;whiteSpace=wrap;html=1;" vertex="1" parent="1">
          <mxGeometry x="180" y="170" width="140" height="70" as="geometry" />
        </mxCell>
        <mxCell id="LVZY9OK_TpER_lkOl7NO-1063" value="Extends" style="endArrow=block;endSize=16;endFill=0;html=1;rounded=0;entryX=0.496;entryY=0.553;entryDx=0;entryDy=0;entryPerimeter=0;" edge="1" parent="1" target="LVZY9OK_TpER_lkOl7NO-1012">
          <mxGeometry width="160" relative="1" as="geometry">
            <mxPoint x="-20" y="290" as="sourcePoint" />
            <mxPoint x="140" y="290" as="targetPoint" />
          </mxGeometry>
        </mxCell>
        <mxCell id="LVZY9OK_TpER_lkOl7NO-1064" value="&lt;div style=&quot;&quot;&gt;&lt;font size=&quot;3&quot;&gt;Prediction Dashboard&lt;/font&gt;&lt;/div&gt;" style="ellipse;whiteSpace=wrap;html=1;align=center;" vertex="1" parent="1">
          <mxGeometry x="90" y="110" width="140" height="70" as="geometry" />
        </mxCell>
        <mxCell id="LVZY9OK_TpER_lkOl7NO-1065" value="Extends" style="endArrow=block;endSize=16;endFill=0;html=1;rounded=0;" edge="1" parent="1">
          <mxGeometry width="160" relative="1" as="geometry">
            <mxPoint x="-40" y="330" as="sourcePoint" />
            <mxPoint x="130" y="360" as="targetPoint" />
          </mxGeometry>
        </mxCell>
        <mxCell id="LVZY9OK_TpER_lkOl7NO-1066" value="&lt;span style=&quot;font-size: medium;&quot;&gt;English-to-ASL Dashboard&lt;/span&gt;" style="ellipse;whiteSpace=wrap;html=1;align=center;" vertex="1" parent="1">
          <mxGeometry x="90" y="10" width="140" height="70" as="geometry" />
        </mxCell>
        <mxCell id="LVZY9OK_TpER_lkOl7NO-1067" value="Extends" style="endArrow=block;endSize=16;endFill=0;html=1;rounded=0;entryX=0.569;entryY=0.593;entryDx=0;entryDy=0;entryPerimeter=0;" edge="1" parent="1" target="LVZY9OK_TpER_lkOl7NO-1012">
          <mxGeometry width="160" relative="1" as="geometry">
            <mxPoint x="-10" y="290" as="sourcePoint" />
            <mxPoint x="80" y="250" as="targetPoint" />
          </mxGeometry>
        </mxCell>
        <mxCell id="LVZY9OK_TpER_lkOl7NO-1068" value="Prediction History&lt;div&gt;&lt;br&gt;&lt;/div&gt;" style="ellipse;whiteSpace=wrap;html=1;" vertex="1" parent="1">
          <mxGeometry x="130" y="250" width="140" height="70" as="geometry" />
        </mxCell>
        <mxCell id="LVZY9OK_TpER_lkOl7NO-1069" value="Extends" style="endArrow=block;endSize=16;endFill=0;html=1;rounded=0;entryX=0.504;entryY=0.472;entryDx=0;entryDy=0;entryPerimeter=0;" edge="1" parent="1" target="LVZY9OK_TpER_lkOl7NO-1012">
          <mxGeometry width="160" relative="1" as="geometry">
            <mxPoint x="-60" y="270" as="sourcePoint" />
            <mxPoint x="50" y="140" as="targetPoint" />
          </mxGeometry>
        </mxCell>
        <mxCell id="LVZY9OK_TpER_lkOl7NO-1070" value="User History" style="ellipse;whiteSpace=wrap;html=1;" vertex="1" parent="1">
          <mxGeometry x="120" y="340" width="140" height="70" as="geometry" />
        </mxCell>
        <mxCell id="LVZY9OK_TpER_lkOl7NO-1071" value="Extends" style="endArrow=block;endSize=16;endFill=0;html=1;rounded=0;" edge="1" parent="1">
          <mxGeometry width="160" relative="1" as="geometry">
            <mxPoint x="-60" y="340" as="sourcePoint" />
            <mxPoint x="100" y="450" as="targetPoint" />
          </mxGeometry>
        </mxCell>
        <mxCell id="LVZY9OK_TpER_lkOl7NO-1072" value="Sentence Generation History" style="ellipse;whiteSpace=wrap;html=1;" vertex="1" parent="1">
          <mxGeometry x="90" y="430" width="140" height="70" as="geometry" />
        </mxCell>
        <mxCell id="LVZY9OK_TpER_lkOl7NO-1073" value="Extends" style="endArrow=block;endSize=16;endFill=0;html=1;rounded=0;entryX=0.463;entryY=0.862;entryDx=0;entryDy=0;entryPerimeter=0;" edge="1" parent="1" target="LVZY9OK_TpER_lkOl7NO-1012">
          <mxGeometry width="160" relative="1" as="geometry">
            <mxPoint x="-100" y="340" as="sourcePoint" />
            <mxPoint x="60" y="450" as="targetPoint" />
          </mxGeometry>
        </mxCell>
        <mxCell id="LVZY9OK_TpER_lkOl7NO-1074" value="Video Generation History" style="ellipse;whiteSpace=wrap;html=1;" vertex="1" parent="1">
          <mxGeometry x="10" y="540" width="140" height="70" as="geometry" />
        </mxCell>
        <mxCell id="LVZY9OK_TpER_lkOl7NO-1075" value="" style="endArrow=block;dashed=1;endFill=0;endSize=12;html=1;rounded=0;entryX=0;entryY=0;entryDx=0;entryDy=0;" edge="1" parent="1" source="LVZY9OK_TpER_lkOl7NO-1068" target="LVZY9OK_TpER_lkOl7NO-1081">
          <mxGeometry width="160" relative="1" as="geometry">
            <mxPoint x="254" y="304" as="sourcePoint" />
            <mxPoint x="370" y="350" as="targetPoint" />
          </mxGeometry>
        </mxCell>
        <mxCell id="LVZY9OK_TpER_lkOl7NO-1076" value="" style="endArrow=block;dashed=1;endFill=0;endSize=12;html=1;rounded=0;entryX=0;entryY=0.5;entryDx=0;entryDy=0;exitX=1;exitY=1;exitDx=0;exitDy=0;" edge="1" parent="1" source="LVZY9OK_TpER_lkOl7NO-1070" target="LVZY9OK_TpER_lkOl7NO-1081">
          <mxGeometry width="160" relative="1" as="geometry">
            <mxPoint x="234" y="405" as="sourcePoint" />
            <mxPoint x="400" y="425" as="targetPoint" />
          </mxGeometry>
        </mxCell>
        <mxCell id="LVZY9OK_TpER_lkOl7NO-1077" value="" style="endArrow=block;dashed=1;endFill=0;endSize=12;html=1;rounded=0;exitX=1;exitY=0.5;exitDx=0;exitDy=0;entryX=0;entryY=1;entryDx=0;entryDy=0;" edge="1" parent="1" source="LVZY9OK_TpER_lkOl7NO-1072" target="LVZY9OK_TpER_lkOl7NO-1081">
          <mxGeometry width="160" relative="1" as="geometry">
            <mxPoint x="230" y="460" as="sourcePoint" />
            <mxPoint x="400" y="440" as="targetPoint" />
          </mxGeometry>
        </mxCell>
        <mxCell id="LVZY9OK_TpER_lkOl7NO-1080" value="" style="endArrow=block;dashed=1;endFill=0;endSize=12;html=1;rounded=0;exitX=1;exitY=0.5;exitDx=0;exitDy=0;entryX=0;entryY=1;entryDx=0;entryDy=0;" edge="1" parent="1" source="LVZY9OK_TpER_lkOl7NO-1074" target="LVZY9OK_TpER_lkOl7NO-1081">
          <mxGeometry width="160" relative="1" as="geometry">
            <mxPoint x="160" y="570" as="sourcePoint" />
            <mxPoint x="400" y="450" as="targetPoint" />
          </mxGeometry>
        </mxCell>
        <mxCell id="LVZY9OK_TpER_lkOl7NO-1081" value="Pagination and filter" style="ellipse;whiteSpace=wrap;html=1;" vertex="1" parent="1">
          <mxGeometry x="400" y="400" width="140" height="70" as="geometry" />
        </mxCell>
        <mxCell id="LVZY9OK_TpER_lkOl7NO-1082" value="" style="endArrow=block;dashed=1;endFill=0;endSize=12;html=1;rounded=0;entryX=0.24;entryY=0.047;entryDx=0;entryDy=0;entryPerimeter=0;exitX=1;exitY=0;exitDx=0;exitDy=0;" edge="1" parent="1" source="LVZY9OK_TpER_lkOl7NO-1060" target="LVZY9OK_TpER_lkOl7NO-1083">
          <mxGeometry width="160" relative="1" as="geometry">
            <mxPoint x="300" y="210" as="sourcePoint" />
            <mxPoint x="440" y="270" as="targetPoint" />
          </mxGeometry>
        </mxCell>
        <mxCell id="LVZY9OK_TpER_lkOl7NO-1083" value="update personal information and password" style="ellipse;whiteSpace=wrap;html=1;" vertex="1" parent="1">
          <mxGeometry x="410" y="270" width="140" height="70" as="geometry" />
        </mxCell>
        <mxCell id="LVZY9OK_TpER_lkOl7NO-1084" value="" style="endArrow=block;dashed=1;endFill=0;endSize=12;html=1;rounded=0;entryX=0;entryY=0.5;entryDx=0;entryDy=0;exitX=1;exitY=0.5;exitDx=0;exitDy=0;" edge="1" parent="1" source="LVZY9OK_TpER_lkOl7NO-1064" target="LVZY9OK_TpER_lkOl7NO-1085">
          <mxGeometry width="160" relative="1" as="geometry">
            <mxPoint x="230" y="140" as="sourcePoint" />
            <mxPoint x="390" y="140" as="targetPoint" />
          </mxGeometry>
        </mxCell>
        <mxCell id="LVZY9OK_TpER_lkOl7NO-1085" value="Gesture to ASL Prediction&amp;nbsp;" style="ellipse;whiteSpace=wrap;html=1;" vertex="1" parent="1">
          <mxGeometry x="390" y="100" width="140" height="70" as="geometry" />
        </mxCell>
        <mxCell id="LVZY9OK_TpER_lkOl7NO-1086" value="" style="endArrow=block;dashed=1;endFill=0;endSize=12;html=1;rounded=0;entryX=0.032;entryY=0.683;entryDx=0;entryDy=0;entryPerimeter=0;exitX=1;exitY=0;exitDx=0;exitDy=0;" edge="1" parent="1" source="LVZY9OK_TpER_lkOl7NO-1064" target="LVZY9OK_TpER_lkOl7NO-1087">
          <mxGeometry width="160" relative="1" as="geometry">
            <mxPoint x="220" y="130" as="sourcePoint" />
            <mxPoint x="330" y="60" as="targetPoint" />
          </mxGeometry>
        </mxCell>
        <mxCell id="LVZY9OK_TpER_lkOl7NO-1087" value="ASL TO English Sentence via gemini API" style="ellipse;whiteSpace=wrap;html=1;" vertex="1" parent="1">
          <mxGeometry x="330" y="20" width="140" height="70" as="geometry" />
        </mxCell>
        <mxCell id="LVZY9OK_TpER_lkOl7NO-1088" value="" style="endArrow=block;dashed=1;endFill=0;endSize=12;html=1;rounded=0;entryX=0;entryY=1;entryDx=0;entryDy=0;exitX=1;exitY=0;exitDx=0;exitDy=0;" edge="1" parent="1" source="LVZY9OK_TpER_lkOl7NO-1066" target="LVZY9OK_TpER_lkOl7NO-1089">
          <mxGeometry width="160" relative="1" as="geometry">
            <mxPoint x="210" y="20" as="sourcePoint" />
            <mxPoint x="350" y="-10" as="targetPoint" />
          </mxGeometry>
        </mxCell>
        <mxCell id="LVZY9OK_TpER_lkOl7NO-1089" value="English to ASL Gesture video preview" style="ellipse;whiteSpace=wrap;html=1;" vertex="1" parent="1">
          <mxGeometry x="344" y="-69" width="140" height="70" as="geometry" />
        </mxCell>
        <mxCell id="LVZY9OK_TpER_lkOl7NO-1090" value="" style="endArrow=block;dashed=1;endFill=0;endSize=12;html=1;rounded=0;exitX=0.746;exitY=0.021;exitDx=0;exitDy=0;exitPerimeter=0;entryX=0.5;entryY=1;entryDx=0;entryDy=0;" edge="1" parent="1" source="LVZY9OK_TpER_lkOl7NO-1066" target="LVZY9OK_TpER_lkOl7NO-1091">
          <mxGeometry width="160" relative="1" as="geometry">
            <mxPoint x="190" as="sourcePoint" />
            <mxPoint x="310" y="-70" as="targetPoint" />
          </mxGeometry>
        </mxCell>
        <mxCell id="LVZY9OK_TpER_lkOl7NO-1091" value="English to ASL Gesture Video Download" style="ellipse;whiteSpace=wrap;html=1;" vertex="1" parent="1">
          <mxGeometry x="260" y="-139" width="140" height="70" as="geometry" />
        </mxCell>
        <mxCell id="LVZY9OK_TpER_lkOl7NO-1092" value="Forgot Passord" style="ellipse;whiteSpace=wrap;html=1;" vertex="1" parent="1">
          <mxGeometry x="-340" y="-155" width="140" height="70" as="geometry" />
        </mxCell>
        <mxCell id="LVZY9OK_TpER_lkOl7NO-1094" value="Extends" style="endArrow=block;endSize=16;endFill=0;html=1;rounded=0;exitX=0.298;exitY=0.897;exitDx=0;exitDy=0;exitPerimeter=0;entryX=0.643;entryY=0.143;entryDx=0;entryDy=0;entryPerimeter=0;" edge="1" parent="1" source="LVZY9OK_TpER_lkOl7NO-1092" target="LVZY9OK_TpER_lkOl7NO-1095">
          <mxGeometry width="160" relative="1" as="geometry">
            <mxPoint x="-350" y="-40" as="sourcePoint" />
            <mxPoint x="-190" y="-30" as="targetPoint" />
          </mxGeometry>
        </mxCell>
        <mxCell id="LVZY9OK_TpER_lkOl7NO-1095" value="Email Verification" style="ellipse;whiteSpace=wrap;html=1;" vertex="1" parent="1">
          <mxGeometry x="-320" y="-30" width="140" height="70" as="geometry" />
        </mxCell>
        <mxCell id="LVZY9OK_TpER_lkOl7NO-1096" value="Extends" style="endArrow=block;endSize=16;endFill=0;html=1;rounded=0;exitX=0.376;exitY=1.034;exitDx=0;exitDy=0;entryX=0.24;entryY=0.164;entryDx=0;entryDy=0;entryPerimeter=0;exitPerimeter=0;" edge="1" parent="1" source="LVZY9OK_TpER_lkOl7NO-1095" target="LVZY9OK_TpER_lkOl7NO-1097">
          <mxGeometry x="0.0706" y="40" width="160" relative="1" as="geometry">
            <mxPoint x="-288" y="-82" as="sourcePoint" />
            <mxPoint x="-220" y="-10" as="targetPoint" />
            <mxPoint as="offset" />
          </mxGeometry>
        </mxCell>
        <mxCell id="LVZY9OK_TpER_lkOl7NO-1097" value="Email Verification Confirmation" style="ellipse;whiteSpace=wrap;html=1;" vertex="1" parent="1">
          <mxGeometry x="-320" y="110" width="140" height="70" as="geometry" />
        </mxCell>
        <mxCell id="LVZY9OK_TpER_lkOl7NO-1098" value="Extends" style="endArrow=block;endSize=16;endFill=0;html=1;rounded=0;exitX=0;exitY=0;exitDx=0;exitDy=0;entryX=1;entryY=1;entryDx=0;entryDy=0;" edge="1" parent="1" source="LVZY9OK_TpER_lkOl7NO-1053" target="LVZY9OK_TpER_lkOl7NO-1099">
          <mxGeometry width="160" relative="1" as="geometry">
            <mxPoint x="-410" y="610" as="sourcePoint" />
            <mxPoint x="-250" y="610" as="targetPoint" />
          </mxGeometry>
        </mxCell>
        <mxCell id="LVZY9OK_TpER_lkOl7NO-1099" value="password reset page" style="ellipse;whiteSpace=wrap;html=1;" vertex="1" parent="1">
          <mxGeometry x="-490" y="450" width="140" height="70" as="geometry" />
        </mxCell>
        <mxCell id="LVZY9OK_TpER_lkOl7NO-1102" value="Extends" style="endArrow=block;endSize=16;endFill=0;html=1;rounded=0;exitX=0.5;exitY=0;exitDx=0;exitDy=0;entryX=0;entryY=0.5;entryDx=0;entryDy=0;" edge="1" parent="1" source="LVZY9OK_TpER_lkOl7NO-1099" target="LVZY9OK_TpER_lkOl7NO-1103">
          <mxGeometry width="160" relative="1" as="geometry">
            <mxPoint x="-460" y="430" as="sourcePoint" />
            <mxPoint x="-300" y="430" as="targetPoint" />
          </mxGeometry>
        </mxCell>
        <mxCell id="LVZY9OK_TpER_lkOl7NO-1103" value="password reset confirmation" style="ellipse;whiteSpace=wrap;html=1;" vertex="1" parent="1">
          <mxGeometry x="-310" y="400" width="140" height="70" as="geometry" />
        </mxCell>
        <mxCell id="LVZY9OK_TpER_lkOl7NO-1104" value="Extends" style="endArrow=block;endSize=16;endFill=0;html=1;rounded=0;exitX=0.071;exitY=0.294;exitDx=0;exitDy=0;exitPerimeter=0;entryX=1;entryY=1;entryDx=0;entryDy=0;" edge="1" parent="1" source="LVZY9OK_TpER_lkOl7NO-1103" target="LVZY9OK_TpER_lkOl7NO-1035">
          <mxGeometry width="160" relative="1" as="geometry">
            <mxPoint x="-460" y="398.18" as="sourcePoint" />
            <mxPoint x="-300" y="398.18" as="targetPoint" />
            <Array as="points">
              <mxPoint x="-350" y="390" />
            </Array>
          </mxGeometry>
        </mxCell>
      </root>
    </mxGraphModel>
  </diagram>
</mxfile>
